<?xml version="1.0" encoding="utf-8"?>
<!-- Generator: Adobe Illustrator 24.1.3, SVG Export Plug-In . SVG Version: 6.00 Build 0)  -->
<svg version="1.1" id="Layer_1" xmlns="http://www.w3.org/2000/svg" xmlns:xlink="http://www.w3.org/1999/xlink" x="0px" y="0px"
	 viewBox="0 0 200 123.4" style="enable-background:new 0 0 200 123.4;" xml:space="preserve">
<style type="text/css">
	.st0{display:none;fill:#F1F1F1;}
	.st1{fill:#2E2E2E;}
	.st2{stroke:#FFFFFF;stroke-width:2;stroke-miterlimit:10;}
	.st3{stroke:#FFFFFF;stroke-width:0.5;stroke-miterlimit:10;}
	.st4{fill:#FFFFFF;}
</style>
<rect x="65.3" y="7.2" class="st0" width="69.3" height="39.7"/>
<path class="st1" d="M52-4.5"/>
<ellipse cx="49.5" cy="38.4" rx="18.9" ry="14.5"/>
<path class="st1" d="M101.9,47.3"/>
<ellipse cx="152.8" cy="38.4" rx="17.3" ry="14.5"/>
<path d="M193.6,106.1H9.7c-0.9,0-1.6-0.4-1.6-0.9V67.4c0-7.1,9.9-12.8,22.1-12.8c0,0,5.9,0,36,0c0,0,66.2,0,106.6,0
	c11.6,0,21,5.4,21,12.2V106.1z"/>
<path class="st2" d="M150.1,78H52.5c-1.5,0-2.8,1.2-2.8,2.8v33.6c0,0,0,0,0,0H153c0,0,0,0,0,0V80.9C153,79.3,151.7,78,150.1,78z"/>
<path class="st2" d="M100.2,39.2h-3.3c-10.6,0-19.3,8.6-19.3,19.3v0.1c0,10.6,8.6,19.3,19.3,19.3h3.5c10.6,0,19.3-8.6,19.3-19.3v0
	C119.5,47.9,110.9,39.2,100.2,39.2z"/>
<rect x="52.5" y="8" class="st3" width="85.8" height="12.8"/>
<polygon class="st4" points="66.3,16.5 63.1,15.4 59.8,16.4 60.5,14.2 57.9,12.6 61.5,12.3 63.2,10.4 64.8,12.4 68.4,12.8 
	65.7,14.3 "/>
<polygon class="st4" points="81.4,16.8 78.2,15.7 75,16.7 75.7,14.5 73.1,12.9 76.7,12.6 78.4,10.7 80,12.7 83.6,13.1 80.9,14.6 "/>
<polygon class="st4" points="97.3,16.8 94.1,15.7 90.8,16.7 91.5,14.5 89,12.9 92.6,12.6 94.3,10.7 95.9,12.7 99.5,13.1 96.8,14.6 
	"/>
<polygon class="st4" points="111.3,16.8 108.1,15.7 104.8,16.7 105.5,14.5 102.9,12.9 106.5,12.6 108.2,10.7 109.8,12.7 113.4,13.1 
	110.7,14.6 "/>
<polygon class="st4" points="127.1,16.8 123.9,15.7 120.6,16.7 121.4,14.5 118.8,12.9 122.4,12.6 124.1,10.7 125.7,12.7 129.3,13.1 
	126.6,14.6 "/>
<polygon points="96.4,40 103.1,19.5 89.8,19.5 "/>
</svg>
